<svg width="92" height="92" viewBox="0 0 92 92" fill="none" xmlns="http://www.w3.org/2000/svg">
<g clip-path="url(#clip0_1_47)">
<path d="M78.9314 31.3141H61.6577V8.47096C61.6577 7.17624 62.7073 6.12677 64.0018 6.12677H76.587C77.8817 6.12677 78.9312 7.17642 78.9312 8.47096V31.3141H78.9314Z" fill="url(#paint0_linear_1_47)"/>
<path d="M78.9314 31.3141H61.6577V8.47096C61.6577 7.17624 62.7073 6.12677 64.0018 6.12677H76.587C77.8817 6.12677 78.9312 7.17642 78.9312 8.47096V31.3141H78.9314Z" fill="url(#paint1_linear_1_47)"/>
<path d="M78.9315 8.47084V31.3133H68.2911V6.1272H76.5879C77.881 6.1272 78.9315 7.17577 78.9315 8.47084Z" fill="url(#paint2_linear_1_47)"/>
<path d="M79.4285 36.8286V81.4654C79.4285 83.8956 77.4584 85.8657 75.0282 85.8657H16.9638C14.5335 85.8657 12.5634 83.8956 12.5634 81.4654V36.8286L36.6496 19.0006H55.3424L79.4285 36.8286Z" fill="url(#paint3_linear_1_47)"/>
<path d="M12.5636 56.4453V81.4657C12.5636 83.896 14.5337 85.8661 16.964 85.8661H75.0283C77.4586 85.8661 79.4287 83.896 79.4287 81.4657V56.4453H12.5636Z" fill="url(#paint4_linear_1_47)"/>
<path d="M79.4296 36.8291V56.4449H12.563V36.8291L36.6508 19.0008H55.3418L79.4296 36.8291Z" fill="url(#paint5_linear_1_47)"/>
<path d="M12.563 36.8291V56.4449H79.4296V36.8291L55.3418 19.0008H36.6508L12.563 36.8291Z" fill="url(#paint6_linear_1_47)"/>
<path d="M45.9963 19.0006V85.8657H75.0285C77.4587 85.8657 79.4288 83.8956 79.4288 81.4654V36.8286L55.3427 19.0006H45.9963Z" fill="url(#paint7_linear_1_47)"/>
<path d="M47.8302 20.4462L82.3787 46.0181C85.2031 48.1088 89.2098 47.3496 91.0739 44.3709C92.7431 41.7034 92.0795 38.2009 89.5505 36.3287L50.9576 7.76332C48.0098 5.58138 43.9827 5.58138 41.0348 7.76332L2.44204 36.3287C-0.0872108 38.2007 -0.750741 41.7034 0.918596 44.3709C2.7827 47.3496 6.78939 48.1088 9.61384 46.0181L44.1623 20.4462C45.2519 19.6397 46.7406 19.6397 47.8302 20.4462Z" fill="url(#paint8_linear_1_47)"/>
<path d="M47.8302 20.4462L82.3787 46.0181C85.2031 48.1088 89.2098 47.3496 91.0739 44.3709C92.7431 41.7034 92.0795 38.2009 89.5505 36.3287L50.9576 7.76332C48.0098 5.58138 43.9827 5.58138 41.0348 7.76332L2.44204 36.3287C-0.0872108 38.2007 -0.750741 41.7034 0.918596 44.3709C2.7827 47.3496 6.78939 48.1088 9.61384 46.0181L44.1623 20.4462C45.2519 19.6397 46.7406 19.6397 47.8302 20.4462Z" fill="url(#paint9_linear_1_47)"/>
<path d="M91.05 44.4069L50.9577 14.7317C48.01 12.5499 43.9828 12.5499 41.0349 14.7317L0.94281 44.4069C2.81679 47.355 6.80139 48.0997 9.61398 46.0178L44.1625 20.446C45.252 19.6394 46.7408 19.6394 47.8303 20.446L82.3788 46.0178C85.1916 48.0997 89.176 47.3548 91.05 44.4069Z" fill="url(#paint10_linear_1_47)"/>
<path d="M61.6575 30.6801L82.3786 46.0173C85.2031 48.108 89.2098 47.3489 91.0739 44.3701C92.743 41.7027 92.0795 38.2001 89.5504 36.3279L70.2759 22.0614L61.6575 30.6801Z" fill="url(#paint11_linear_1_47)"/>
<path d="M30.3352 30.6799L9.6139 46.0173C6.78945 48.108 2.78275 47.3489 0.918653 44.3701C-0.750504 41.7027 -0.0869739 38.2001 2.4421 36.3279L21.7165 22.0614L30.3352 30.6799Z" fill="url(#paint12_linear_1_47)"/>
<path d="M41.7357 54.3518H32.3498C31.2371 54.3518 30.3351 53.4498 30.3351 52.3371V42.9512C30.3351 41.8385 31.2371 40.9366 32.3498 40.9366H41.7357C42.8484 40.9366 43.7504 41.8385 43.7504 42.9512V52.3371C43.7504 53.4497 42.8484 54.3518 41.7357 54.3518Z" fill="url(#paint13_linear_1_47)"/>
<path d="M41.7357 54.3518H32.3498C31.2371 54.3518 30.3351 53.4498 30.3351 52.3371V42.9512C30.3351 41.8385 31.2371 40.9366 32.3498 40.9366H41.7357C42.8484 40.9366 43.7504 41.8385 43.7504 42.9512V52.3371C43.7504 53.4497 42.8484 54.3518 41.7357 54.3518Z" fill="url(#paint14_linear_1_47)"/>
<path d="M41.7357 54.3518H32.3498C31.2371 54.3518 30.3351 53.4498 30.3351 52.3371V42.9512C30.3351 41.8385 31.2371 40.9366 32.3498 40.9366H41.7357C42.8484 40.9366 43.7504 41.8385 43.7504 42.9512V52.3371C43.7504 53.4497 42.8484 54.3518 41.7357 54.3518Z" fill="url(#paint15_linear_1_47)"/>
<path d="M59.6427 54.3519H50.2568C49.1441 54.3519 48.2421 53.45 48.2421 52.3372V42.9513C48.2421 41.8386 49.1441 40.9367 50.2568 40.9367H59.6427C60.7554 40.9367 61.6574 41.8386 61.6574 42.9513V52.3372C61.6574 53.4498 60.7554 54.3519 59.6427 54.3519Z" fill="url(#paint16_linear_1_47)"/>
<path d="M59.6427 54.3519H50.2568C49.1441 54.3519 48.2421 53.45 48.2421 52.3372V42.9513C48.2421 41.8386 49.1441 40.9367 50.2568 40.9367H59.6427C60.7554 40.9367 61.6574 41.8386 61.6574 42.9513V52.3372C61.6574 53.4498 60.7554 54.3519 59.6427 54.3519Z" fill="url(#paint17_linear_1_47)"/>
<path d="M59.6427 54.3519H50.2568C49.1441 54.3519 48.2421 53.45 48.2421 52.3372V42.9513C48.2421 41.8386 49.1441 40.9367 50.2568 40.9367H59.6427C60.7554 40.9367 61.6574 41.8386 61.6574 42.9513V52.3372C61.6574 53.4498 60.7554 54.3519 59.6427 54.3519Z" fill="url(#paint18_linear_1_47)"/>
<path d="M41.7357 71.9528H32.3498C31.2371 71.9528 30.3351 71.0509 30.3351 69.9382V60.5523C30.3351 59.4396 31.2371 58.5376 32.3498 58.5376H41.7357C42.8484 58.5376 43.7504 59.4396 43.7504 60.5523V69.9382C43.7504 71.0509 42.8484 71.9528 41.7357 71.9528Z" fill="url(#paint19_linear_1_47)"/>
<path d="M41.7357 71.9528H32.3498C31.2371 71.9528 30.3351 71.0509 30.3351 69.9382V60.5523C30.3351 59.4396 31.2371 58.5376 32.3498 58.5376H41.7357C42.8484 58.5376 43.7504 59.4396 43.7504 60.5523V69.9382C43.7504 71.0509 42.8484 71.9528 41.7357 71.9528Z" fill="url(#paint20_linear_1_47)"/>
<path d="M41.7357 71.9528H32.3498C31.2371 71.9528 30.3351 71.0509 30.3351 69.9382V60.5523C30.3351 59.4396 31.2371 58.5376 32.3498 58.5376H41.7357C42.8484 58.5376 43.7504 59.4396 43.7504 60.5523V69.9382C43.7504 71.0509 42.8484 71.9528 41.7357 71.9528Z" fill="url(#paint21_linear_1_47)"/>
<path d="M59.6427 71.9528H50.2568C49.1441 71.9528 48.2421 71.0509 48.2421 69.9381V60.5522C48.2421 59.4395 49.1441 58.5376 50.2568 58.5376H59.6427C60.7554 58.5376 61.6574 59.4395 61.6574 60.5522V69.9381C61.6574 71.0509 60.7554 71.9528 59.6427 71.9528Z" fill="url(#paint22_linear_1_47)"/>
<path d="M59.6427 71.9528H50.2568C49.1441 71.9528 48.2421 71.0509 48.2421 69.9381V60.5522C48.2421 59.4395 49.1441 58.5376 50.2568 58.5376H59.6427C60.7554 58.5376 61.6574 59.4395 61.6574 60.5522V69.9381C61.6574 71.0509 60.7554 71.9528 59.6427 71.9528Z" fill="url(#paint23_linear_1_47)"/>
<path d="M59.6427 71.9528H50.2568C49.1441 71.9528 48.2421 71.0509 48.2421 69.9381V60.5522C48.2421 59.4395 49.1441 58.5376 50.2568 58.5376H59.6427C60.7554 58.5376 61.6574 59.4395 61.6574 60.5522V69.9381C61.6574 71.0509 60.7554 71.9528 59.6427 71.9528Z" fill="url(#paint24_linear_1_47)"/>
</g>
<defs>
<linearGradient id="paint0_linear_1_47" x1="63.5922" y1="18.7204" x2="79.0424" y2="18.7204" gradientUnits="userSpaceOnUse">
<stop stop-color="#FFA1AE"/>
<stop offset="1" stop-color="#FF4565"/>
</linearGradient>
<linearGradient id="paint1_linear_1_47" x1="74.0056" y1="14.0739" x2="68.8501" y2="21.6555" gradientUnits="userSpaceOnUse">
<stop stop-color="#FE0364" stop-opacity="0"/>
<stop offset="0.2343" stop-color="#F90362" stop-opacity="0.234"/>
<stop offset="0.5173" stop-color="#EA035B" stop-opacity="0.517"/>
<stop offset="0.8243" stop-color="#D20250" stop-opacity="0.824"/>
<stop offset="1" stop-color="#C00148"/>
</linearGradient>
<linearGradient id="paint2_linear_1_47" x1="73.4037" y1="18.7203" x2="79.1015" y2="18.7203" gradientUnits="userSpaceOnUse">
<stop stop-color="#FE0364" stop-opacity="0"/>
<stop offset="0.2343" stop-color="#F90362" stop-opacity="0.234"/>
<stop offset="0.5173" stop-color="#EA035B" stop-opacity="0.517"/>
<stop offset="0.8243" stop-color="#D20250" stop-opacity="0.824"/>
<stop offset="1" stop-color="#C00148"/>
</linearGradient>
<linearGradient id="paint3_linear_1_47" x1="19.7897" y1="33.8522" x2="59.8007" y2="73.8633" gradientUnits="userSpaceOnUse">
<stop stop-color="#F5FBFF"/>
<stop offset="1" stop-color="#DBD5EF"/>
</linearGradient>
<linearGradient id="paint4_linear_1_47" x1="45.9961" y1="69.8912" x2="45.9961" y2="86.8999" gradientUnits="userSpaceOnUse">
<stop stop-color="#DBD5EF" stop-opacity="0"/>
<stop offset="0.2853" stop-color="#D9D2EE" stop-opacity="0.285"/>
<stop offset="0.4739" stop-color="#D4C9E9" stop-opacity="0.474"/>
<stop offset="0.6346" stop-color="#CBBAE2" stop-opacity="0.635"/>
<stop offset="0.7795" stop-color="#BFA5D7" stop-opacity="0.78"/>
<stop offset="0.9126" stop-color="#AF8ACA" stop-opacity="0.913"/>
<stop offset="1" stop-color="#A274BF"/>
</linearGradient>
<linearGradient id="paint5_linear_1_47" x1="41.5819" y1="40.1257" x2="33.2906" y2="27.896" gradientUnits="userSpaceOnUse">
<stop stop-color="#DBD5EF" stop-opacity="0"/>
<stop offset="0.2853" stop-color="#D9D2EE" stop-opacity="0.285"/>
<stop offset="0.4739" stop-color="#D4C9E9" stop-opacity="0.474"/>
<stop offset="0.6346" stop-color="#CBBAE2" stop-opacity="0.635"/>
<stop offset="0.7795" stop-color="#BFA5D7" stop-opacity="0.78"/>
<stop offset="0.9126" stop-color="#AF8ACA" stop-opacity="0.913"/>
<stop offset="1" stop-color="#A274BF"/>
</linearGradient>
<linearGradient id="paint6_linear_1_47" x1="50.4107" y1="40.1258" x2="58.702" y2="27.896" gradientUnits="userSpaceOnUse">
<stop stop-color="#DBD5EF" stop-opacity="0"/>
<stop offset="0.2853" stop-color="#D9D2EE" stop-opacity="0.285"/>
<stop offset="0.4739" stop-color="#D4C9E9" stop-opacity="0.474"/>
<stop offset="0.6346" stop-color="#CBBAE2" stop-opacity="0.635"/>
<stop offset="0.7795" stop-color="#BFA5D7" stop-opacity="0.78"/>
<stop offset="0.9126" stop-color="#AF8ACA" stop-opacity="0.913"/>
<stop offset="1" stop-color="#A274BF"/>
</linearGradient>
<linearGradient id="paint7_linear_1_47" x1="56.754" y1="52.4332" x2="80.4109" y2="52.4332" gradientUnits="userSpaceOnUse">
<stop stop-color="#DBD5EF" stop-opacity="0"/>
<stop offset="0.2853" stop-color="#D9D2EE" stop-opacity="0.285"/>
<stop offset="0.4739" stop-color="#D4C9E9" stop-opacity="0.474"/>
<stop offset="0.6346" stop-color="#CBBAE2" stop-opacity="0.635"/>
<stop offset="0.7795" stop-color="#BFA5D7" stop-opacity="0.78"/>
<stop offset="0.9126" stop-color="#AF8ACA" stop-opacity="0.913"/>
<stop offset="1" stop-color="#A274BF"/>
</linearGradient>
<linearGradient id="paint8_linear_1_47" x1="38.7962" y1="6.42799" x2="48.3313" y2="52.4453" gradientUnits="userSpaceOnUse">
<stop stop-color="#B3DAFE"/>
<stop offset="1" stop-color="#0182FC"/>
</linearGradient>
<linearGradient id="paint9_linear_1_47" x1="38.7962" y1="6.42799" x2="48.3313" y2="52.4453" gradientUnits="userSpaceOnUse">
<stop stop-color="#B3DAFE"/>
<stop offset="1" stop-color="#0182FC"/>
</linearGradient>
<linearGradient id="paint10_linear_1_47" x1="45.9964" y1="34.3075" x2="45.9964" y2="5.55291" gradientUnits="userSpaceOnUse">
<stop stop-color="#314DC9" stop-opacity="0"/>
<stop offset="0.2761" stop-color="#304BC4" stop-opacity="0.276"/>
<stop offset="0.5628" stop-color="#2B45B8" stop-opacity="0.563"/>
<stop offset="0.8535" stop-color="#243BA3" stop-opacity="0.854"/>
<stop offset="1" stop-color="#1F3596"/>
</linearGradient>
<linearGradient id="paint11_linear_1_47" x1="79.6285" y1="37.4814" x2="90.0765" y2="47.9292" gradientUnits="userSpaceOnUse">
<stop stop-color="#314DC9" stop-opacity="0"/>
<stop offset="0.2761" stop-color="#304BC4" stop-opacity="0.276"/>
<stop offset="0.5628" stop-color="#2B45B8" stop-opacity="0.563"/>
<stop offset="0.8535" stop-color="#243BA3" stop-opacity="0.854"/>
<stop offset="1" stop-color="#1F3596"/>
</linearGradient>
<linearGradient id="paint12_linear_1_47" x1="12.3641" y1="37.4812" x2="1.91637" y2="47.929" gradientUnits="userSpaceOnUse">
<stop stop-color="#314DC9" stop-opacity="0"/>
<stop offset="0.2761" stop-color="#304BC4" stop-opacity="0.276"/>
<stop offset="0.5628" stop-color="#2B45B8" stop-opacity="0.563"/>
<stop offset="0.8535" stop-color="#243BA3" stop-opacity="0.854"/>
<stop offset="1" stop-color="#1F3596"/>
</linearGradient>
<linearGradient id="paint13_linear_1_47" x1="33.2825" y1="43.8839" x2="43.5269" y2="54.1283" gradientUnits="userSpaceOnUse">
<stop stop-color="#B3DAFE"/>
<stop offset="1" stop-color="#0182FC"/>
</linearGradient>
<linearGradient id="paint14_linear_1_47" x1="37.0427" y1="44.5266" x2="37.0427" y2="39.8055" gradientUnits="userSpaceOnUse">
<stop stop-color="#314DC9" stop-opacity="0"/>
<stop offset="0.2761" stop-color="#304BC4" stop-opacity="0.276"/>
<stop offset="0.5628" stop-color="#2B45B8" stop-opacity="0.563"/>
<stop offset="0.8535" stop-color="#243BA3" stop-opacity="0.854"/>
<stop offset="1" stop-color="#1F3596"/>
</linearGradient>
<linearGradient id="paint15_linear_1_47" x1="34.7357" y1="47.6441" x2="29.8522" y2="47.6441" gradientUnits="userSpaceOnUse">
<stop stop-color="#314DC9" stop-opacity="0"/>
<stop offset="0.2761" stop-color="#304BC4" stop-opacity="0.276"/>
<stop offset="0.5628" stop-color="#2B45B8" stop-opacity="0.563"/>
<stop offset="0.8535" stop-color="#243BA3" stop-opacity="0.854"/>
<stop offset="1" stop-color="#1F3596"/>
</linearGradient>
<linearGradient id="paint16_linear_1_47" x1="51.1897" y1="43.884" x2="61.4339" y2="54.1284" gradientUnits="userSpaceOnUse">
<stop stop-color="#B3DAFE"/>
<stop offset="1" stop-color="#0182FC"/>
</linearGradient>
<linearGradient id="paint17_linear_1_47" x1="54.9498" y1="44.5267" x2="54.9498" y2="39.8056" gradientUnits="userSpaceOnUse">
<stop stop-color="#314DC9" stop-opacity="0"/>
<stop offset="0.2761" stop-color="#304BC4" stop-opacity="0.276"/>
<stop offset="0.5628" stop-color="#2B45B8" stop-opacity="0.563"/>
<stop offset="0.8535" stop-color="#243BA3" stop-opacity="0.854"/>
<stop offset="1" stop-color="#1F3596"/>
</linearGradient>
<linearGradient id="paint18_linear_1_47" x1="52.6427" y1="47.6442" x2="47.7592" y2="47.6442" gradientUnits="userSpaceOnUse">
<stop stop-color="#314DC9" stop-opacity="0"/>
<stop offset="0.2761" stop-color="#304BC4" stop-opacity="0.276"/>
<stop offset="0.5628" stop-color="#2B45B8" stop-opacity="0.563"/>
<stop offset="0.8535" stop-color="#243BA3" stop-opacity="0.854"/>
<stop offset="1" stop-color="#1F3596"/>
</linearGradient>
<linearGradient id="paint19_linear_1_47" x1="33.2825" y1="61.4849" x2="43.5269" y2="71.7293" gradientUnits="userSpaceOnUse">
<stop stop-color="#B3DAFE"/>
<stop offset="1" stop-color="#0182FC"/>
</linearGradient>
<linearGradient id="paint20_linear_1_47" x1="37.0427" y1="62.1278" x2="37.0427" y2="57.4067" gradientUnits="userSpaceOnUse">
<stop stop-color="#314DC9" stop-opacity="0"/>
<stop offset="0.2761" stop-color="#304BC4" stop-opacity="0.276"/>
<stop offset="0.5628" stop-color="#2B45B8" stop-opacity="0.563"/>
<stop offset="0.8535" stop-color="#243BA3" stop-opacity="0.854"/>
<stop offset="1" stop-color="#1F3596"/>
</linearGradient>
<linearGradient id="paint21_linear_1_47" x1="34.7357" y1="65.2453" x2="29.8522" y2="65.2453" gradientUnits="userSpaceOnUse">
<stop stop-color="#314DC9" stop-opacity="0"/>
<stop offset="0.2761" stop-color="#304BC4" stop-opacity="0.276"/>
<stop offset="0.5628" stop-color="#2B45B8" stop-opacity="0.563"/>
<stop offset="0.8535" stop-color="#243BA3" stop-opacity="0.854"/>
<stop offset="1" stop-color="#1F3596"/>
</linearGradient>
<linearGradient id="paint22_linear_1_47" x1="51.1897" y1="61.4849" x2="61.4339" y2="71.7293" gradientUnits="userSpaceOnUse">
<stop stop-color="#B3DAFE"/>
<stop offset="1" stop-color="#0182FC"/>
</linearGradient>
<linearGradient id="paint23_linear_1_47" x1="54.9498" y1="62.1278" x2="54.9498" y2="57.4067" gradientUnits="userSpaceOnUse">
<stop stop-color="#314DC9" stop-opacity="0"/>
<stop offset="0.2761" stop-color="#304BC4" stop-opacity="0.276"/>
<stop offset="0.5628" stop-color="#2B45B8" stop-opacity="0.563"/>
<stop offset="0.8535" stop-color="#243BA3" stop-opacity="0.854"/>
<stop offset="1" stop-color="#1F3596"/>
</linearGradient>
<linearGradient id="paint24_linear_1_47" x1="52.6427" y1="65.2453" x2="47.7592" y2="65.2453" gradientUnits="userSpaceOnUse">
<stop stop-color="#314DC9" stop-opacity="0"/>
<stop offset="0.2761" stop-color="#304BC4" stop-opacity="0.276"/>
<stop offset="0.5628" stop-color="#2B45B8" stop-opacity="0.563"/>
<stop offset="0.8535" stop-color="#243BA3" stop-opacity="0.854"/>
<stop offset="1" stop-color="#1F3596"/>
</linearGradient>
<clipPath id="clip0_1_47">
<rect width="91.9923" height="91.9923" fill="white"/>
</clipPath>
</defs>
</svg>
